<?xml version="1.0" encoding="UTF-8" standalone="no"?>
<!-- Created with Inkscape (http://www.inkscape.org/) -->

<svg
   width="274.87119mm"
   height="67.347244mm"
   viewBox="0 0 274.87119 67.347244"
   version="1.1"
   id="svg1"
   sodipodi:docname="logos_nuevos_posta.svg"
   inkscape:version="1.3.2 (091e20e, 2023-11-25, custom)"
   xml:space="preserve"
   xmlns:inkscape="http://www.inkscape.org/namespaces/inkscape"
   xmlns:sodipodi="http://sodipodi.sourceforge.net/DTD/sodipodi-0.dtd"
   xmlns:xlink="http://www.w3.org/1999/xlink"
   xmlns="http://www.w3.org/2000/svg"
   xmlns:svg="http://www.w3.org/2000/svg"><sodipodi:namedview
     id="namedview1"
     pagecolor="#505050"
     bordercolor="#eeeeee"
     borderopacity="1"
     inkscape:showpageshadow="0"
     inkscape:pageopacity="0"
     inkscape:pagecheckerboard="0"
     inkscape:deskcolor="#d1d1d1"
     inkscape:document-units="mm"
     inkscape:zoom="0.25000001"
     inkscape:cx="9389.9997"
     inkscape:cy="6929.9998"
     inkscape:window-width="1920"
     inkscape:window-height="1017"
     inkscape:window-x="-8"
     inkscape:window-y="-8"
     inkscape:window-maximized="1"
     inkscape:current-layer="layer1" /><defs
     id="defs1"><linearGradient
       id="linear-gradient-6"
       x1="-2240.8999"
       y1="-2120.3999"
       x2="-2240.8999"
       y2="-2072"
       gradientTransform="matrix(2.8,0,0,-2.8,6734.4,-5767.2)"
       gradientUnits="userSpaceOnUse"><stop
         offset="0"
         stop-color="#35155f"
         id="stop11" /><stop
         offset="1"
         stop-color="#ca1885"
         id="stop12" /></linearGradient><linearGradient
       id="linear-gradient-7"
       x1="-2288.7"
       y1="-2120.3999"
       x2="-2288.7"
       y2="-2072"
       gradientTransform="matrix(2.8,0,0,-2.8,6751,-5767.2)"
       gradientUnits="userSpaceOnUse"><stop
         offset="0"
         stop-color="#4e0240"
         id="stop13" /><stop
         offset=".3"
         stop-color="#e70b6f"
         id="stop14" /><stop
         offset=".7"
         stop-color="#ff337f"
         id="stop15" /></linearGradient><linearGradient
       id="linear-gradient-8"
       x1="-2352.1001"
       y1="-2094.3999"
       x2="-2309.5"
       y2="-2125.5"
       gradientTransform="matrix(2.8,0,0,-2.8,6766.2,-5767.2)"
       gradientUnits="userSpaceOnUse"><stop
         offset="0"
         stop-color="#fa7d35"
         id="stop16" /><stop
         offset=".6"
         stop-color="#e10861"
         id="stop17" /></linearGradient><linearGradient
       id="linear-gradient-9"
       x1="-2335.1001"
       y1="-2121.8999"
       x2="-2292.3"
       y2="-2121.8999"
       gradientTransform="matrix(2.8,0,0,-2.8,6766.2,-5767.2)"
       gradientUnits="userSpaceOnUse"><stop
         offset="0"
         stop-color="#d6024a"
         id="stop18" /><stop
         offset="1"
         stop-color="#660036"
         id="stop19" /></linearGradient><linearGradient
       id="linear-gradient-10"
       x1="-2296.8999"
       y1="-2071.7"
       x2="-2297.1001"
       y2="-2120.7"
       gradientTransform="matrix(2.8,0,0,-2.8,6993.9,-5767.2)"
       gradientUnits="userSpaceOnUse"><stop
         offset="0"
         stop-color="#7c0141"
         id="stop20" /><stop
         offset=".5"
         stop-color="#820d60"
         id="stop21" /><stop
         offset="1"
         stop-color="#291175"
         id="stop22" /></linearGradient><linearGradient
       inkscape:collect="always"
       xlink:href="#linear-gradient-6"
       id="linearGradient73"
       gradientUnits="userSpaceOnUse"
       gradientTransform="matrix(0.73808492,0,0,-0.73808492,2280.4673,-1099.334)"
       x1="-2240.8999"
       y1="-2120.3999"
       x2="-2240.8999"
       y2="-2072" /><linearGradient
       inkscape:collect="always"
       xlink:href="#linear-gradient-7"
       id="linearGradient74"
       gradientUnits="userSpaceOnUse"
       gradientTransform="matrix(0.73871308,0,0,-0.73871308,2286.199,-1100.6993)"
       x1="-2288.7"
       y1="-2120.3999"
       x2="-2288.7"
       y2="-2072" /><linearGradient
       inkscape:collect="always"
       xlink:href="#linear-gradient-8"
       id="linearGradient75"
       gradientUnits="userSpaceOnUse"
       gradientTransform="matrix(2.8,0,0,-2.8,6766.2,-5767.2)"
       x1="-2352.1001"
       y1="-2094.3999"
       x2="-2309.5"
       y2="-2125.5" /><linearGradient
       inkscape:collect="always"
       xlink:href="#linear-gradient-9"
       id="linearGradient76"
       gradientUnits="userSpaceOnUse"
       gradientTransform="matrix(2.8,0,0,-2.8,6766.2,-5767.2)"
       x1="-2335.1001"
       y1="-2121.8999"
       x2="-2292.3"
       y2="-2121.8999" /><linearGradient
       inkscape:collect="always"
       xlink:href="#linear-gradient-10"
       id="linearGradient77"
       gradientUnits="userSpaceOnUse"
       gradientTransform="matrix(0.73871319,0,0,-0.73871319,2350.4485,-1100.6995)"
       x1="-2296.8999"
       y1="-2071.7"
       x2="-2297.1001"
       y2="-2120.7" /></defs><g
     inkscape:label="Layer 1"
     inkscape:groupmode="layer"
     id="layer1"
     transform="translate(-1802.8367,-437.12303)"><g
       id="g93"><g
         id="g68"
         transform="matrix(1.105575,0,0,1.105575,1348.4619,-339.77053)"
         style="fill:#5cbdff;fill-opacity:1"><path
           id="path65"
           class="cls-21"
           d="m 587.64973,703.73294 h -2.68476 l -5.23693,5.23694 v 2.68476 l 5.96613,5.96612 0.43089,0.46404 0.46403,0.43089 2.61847,2.45273 -2.98307,2.98307 -4.11,-3.44709 -1.22637,-1.06065 -1.16008,2.7179 5.23693,5.23694 h 2.68476 l 5.23694,-5.23694 v -2.68475 l -3.64597,-3.64597 -0.53032,-0.53032 -0.46403,-0.46404 -4.47461,-4.47459 2.55219,-2.55218 3.87798,3.87798 3.04936,-1.25952"
           sodipodi:nodetypes="cccccccccccccccccccccccccc"
           style="fill:#5cbdff;fill-opacity:1;stroke-width:0.331451" /><path
           id="path66"
           class="cls-22"
           d="m 639.2055,727.39859 v -22.37607 l -3.09316,-1.28333 -7.27222,7.27222 -7.27223,-7.27222 -3.09315,1.28333 v 22.37607 h 3.65256 v -17.99957 l 6.74573,5.62691 v -1.44785 1.44785 l 6.74571,-5.62691 v 17.96666 h 3.65258 -0.0658 z"
           sodipodi:nodetypes="ccccccccccccccccccccccc"
           style="fill:#5cbdff;fill-opacity:1;stroke-width:0.32906" /><path
           id="path67"
           class="cls-23"
           d="m 614.8109,727.39859 -2.66538,-6.35086 -0.82266,-1.94145 -5.89016,-13.98504 -0.5594,-1.38205 -3.61966,7.96324 -0.46068,0.98719 -0.46069,0.98717 -1.1517,2.50087 -0.69103,1.54657 -4.3765,9.64145 h 4.14615 l 5.10044,-12.40555 3.06024,7.40384 3.02736,1.67822 h -2.33633 l 1.38205,3.32349 h 6.35085 -0.0328 z"
           sodipodi:nodetypes="cccccccccccccccccc"
           style="fill:#5cbdff;fill-opacity:1;stroke-width:0.32906" /><polygon
           class="cls-25"
           points="290.2,219.6 301.2,224.4 265.6,258.2 301.2,291.9 290.2,296.8 249.5,258.2 "
           id="polygon67"
           style="fill:#5cbdff;fill-opacity:1"
           transform="matrix(0.33145163,0,0,0.33145163,478.27069,629.91866)" /><polygon
           class="cls-36"
           points="506.4,219.6 495.4,224.4 531,258.2 495.4,291.9 506.4,296.8 547.1,258.2 "
           id="polygon68"
           style="fill:#5cbdff;fill-opacity:1"
           transform="matrix(0.33145163,0,0,0.33145163,478.27069,629.91866)" /></g><g
         id="g72"
         transform="matrix(1.4698059,0,0,1.4698059,997.00893,-192.02311)"><path
           id="path68"
           class="cls-4"
           d="m 609.32746,437.67065 -6.5137,7.35891 h 17.95128 l 0.0128,28.83803 h 8.30345 v -28.83803 l 14.04998,-0.15817 6.99588,-7.20074 z"
           style="fill:url(#linearGradient73);stroke-width:0.263602"
           sodipodi:nodetypes="ccccccccc" /><path
           id="path69"
           class="cls-2"
           d="m 614.67603,473.86759 -4.93355,-9.73519 -1.50381,-2.95484 -10.86963,-21.42269 -1.05531,-2.08422 -6.70117,12.21514 -0.84426,1.53019 -0.84423,1.5302 -2.11062,3.82548 -1.29275,2.34805 -8.09946,14.74788 h 7.65096 l 9.39221,-18.96909 5.64588,11.31813 5.59312,2.5591 h -4.32676 l 2.55913,5.09186 z"
           sodipodi:nodetypes="cccccccccccccccccc"
           style="fill:url(#linearGradient74);stroke-width:0.263826" /><g
           id="g71"
           transform="matrix(0.26134976,0,0,0.26134976,505.83763,421.5715)"><path
             id="path70"
             class="cls-1"
             d="M 162.3,169.9 H 197 V 90.2 h 24.5 c 48.8,0.9 40.2,69.8 -0.8,79.8 3.4,0 12.9,-0.5 24.1,-2.7 13.9,-2.6 29.9,-7.9 38.3,-18 l 0.6,-0.8 c 3,-7.8 4.6,-15.9 4.9,-26.1 0.9,-42.2 -36.1,-60.3 -49.1,-60.8 l -77.18948,-2e-5 c -0.0333,36.266667 0.0228,72.03335 -0.0105,108.30002 z"
             sodipodi:nodetypes="cccccccsccccc"
             style="fill:url(#linearGradient75)" /><path
             id="path71"
             class="cls-5"
             d="m 283.7,148.5 c -8.6,10.4 -24.9,16 -38.8,18.6 -14,2.6 -25.8,2.7 -25.8,2.7 h -56.8 v 30.3 h 45.8 c 6.9,0 58.9,-7.9 75.6,-51.7 v 0 z"
             sodipodi:nodetypes="cscccccc"
             style="fill:url(#linearGradient76)" /></g><path
           id="path72"
           class="cls-20"
           d="m 672.61979,473.86759 -4.93355,-9.73519 -1.50381,-2.95485 -10.86964,-21.42268 -1.0553,-2.08422 -6.70119,12.21514 -0.84425,1.5302 -0.84423,1.53018 -2.11062,3.82549 -1.29275,2.34805 -8.09946,14.74788 h 7.65097 l 9.39221,-18.9691 5.64587,11.31813 5.59312,2.55913 h -4.32676 l 2.55912,5.09184 z"
           sodipodi:nodetypes="cccccccccccccccccc"
           style="fill:url(#linearGradient77);stroke-width:0.263826" /></g></g></g></svg>
