<?xml version="1.0" encoding="UTF-8" standalone="no"?>
<!-- Created with Inkscape (http://www.inkscape.org/) -->

<svg
   width="281.54974mm"
   height="68.213539mm"
   viewBox="0 0 281.54974 68.213539"
   version="1.1"
   id="svg1"
   sodipodi:docname="logos_nuevos_posta.svg"
   inkscape:version="1.3.2 (091e20e, 2023-11-25, custom)"
   xml:space="preserve"
   xmlns:inkscape="http://www.inkscape.org/namespaces/inkscape"
   xmlns:sodipodi="http://sodipodi.sourceforge.net/DTD/sodipodi-0.dtd"
   xmlns:xlink="http://www.w3.org/1999/xlink"
   xmlns="http://www.w3.org/2000/svg"
   xmlns:svg="http://www.w3.org/2000/svg"><sodipodi:namedview
     id="namedview1"
     pagecolor="#505050"
     bordercolor="#eeeeee"
     borderopacity="1"
     inkscape:showpageshadow="0"
     inkscape:pageopacity="0"
     inkscape:pagecheckerboard="0"
     inkscape:deskcolor="#d1d1d1"
     inkscape:document-units="mm"
     inkscape:zoom="0.50000001"
     inkscape:cx="7084.9998"
     inkscape:cy="1813"
     inkscape:window-width="1920"
     inkscape:window-height="1017"
     inkscape:window-x="-8"
     inkscape:window-y="-8"
     inkscape:window-maximized="1"
     inkscape:current-layer="layer1" /><defs
     id="defs1"><linearGradient
       id="linearGradient411"
       inkscape:collect="always"><stop
         style="stop-color:#fb1a76;stop-opacity:1;"
         offset="0"
         id="stop411" /><stop
         style="stop-color:#f10b9e;stop-opacity:1;"
         offset="0.28879312"
         id="stop413" /><stop
         style="stop-color:#e413a9;stop-opacity:1;"
         offset="0.64655173"
         id="stop414" /><stop
         style="stop-color:#be53ff;stop-opacity:1;"
         offset="1"
         id="stop412" /></linearGradient><linearGradient
       id="linearGradient448"
       inkscape:collect="always"><stop
         style="stop-color:#f97837;stop-opacity:1;"
         offset="0"
         id="stop449" /><stop
         style="stop-color:#e10861;stop-opacity:1;"
         offset="0.17857139"
         id="stop487" /><stop
         style="stop-color:#e10861;stop-opacity:1;"
         offset="0.42091835"
         id="stop488" /><stop
         style="stop-color:#a659ff;stop-opacity:1;"
         offset="0.62087911"
         id="stop483" /><stop
         style="stop-color:#04f7fd;stop-opacity:1;"
         offset="1"
         id="stop448" /></linearGradient><linearGradient
       id="linearGradient400"
       x1="-2335.1001"
       y1="-2121.8999"
       x2="-2292.3"
       y2="-2121.8999"
       gradientTransform="matrix(2.8,0,0,-2.8,6766.2,-5767.2)"
       gradientUnits="userSpaceOnUse"><stop
         offset="0"
         stop-color="#d6024a"
         id="stop399" /><stop
         offset="1"
         stop-color="#660036"
         id="stop400"
         style="stop-color:#b80061;stop-opacity:1;" /></linearGradient><linearGradient
       id="linearGradient398"
       x1="-2352.1001"
       y1="-2094.3999"
       x2="-2309.5"
       y2="-2125.5"
       gradientTransform="matrix(2.8,0,0,-2.8,6766.2,-5767.2)"
       gradientUnits="userSpaceOnUse"><stop
         offset="0"
         stop-color="#fa7d35"
         id="stop397" /><stop
         offset=".6"
         stop-color="#e10861"
         id="stop398" /></linearGradient><linearGradient
       inkscape:collect="always"
       xlink:href="#linearGradient398"
       id="linearGradient42"
       gradientUnits="userSpaceOnUse"
       x1="732.95245"
       y1="650.60443"
       x2="772.49908"
       y2="679.31744" /><linearGradient
       inkscape:collect="always"
       xlink:href="#linearGradient400"
       id="linearGradient43"
       gradientUnits="userSpaceOnUse"
       x1="732.94904"
       y1="695.9494"
       x2="772.49908"
       y2="679.31744" /><linearGradient
       inkscape:collect="always"
       xlink:href="#linearGradient448"
       id="linearGradient44"
       gradientUnits="userSpaceOnUse"
       x1="732.95245"
       y1="650.60443"
       x2="888.745"
       y2="695.9494" /><linearGradient
       inkscape:collect="always"
       xlink:href="#linearGradient411"
       id="linearGradient45"
       gradientUnits="userSpaceOnUse"
       x1="2199.425"
       y1="1631.2928"
       x2="2361.3606"
       y2="1685.827" /><linearGradient
       inkscape:collect="always"
       xlink:href="#linearGradient411"
       id="linearGradient46"
       gradientUnits="userSpaceOnUse"
       x1="2199.425"
       y1="1631.2928"
       x2="2361.3606"
       y2="1685.827" /><linearGradient
       inkscape:collect="always"
       xlink:href="#linearGradient411"
       id="linearGradient47"
       gradientUnits="userSpaceOnUse"
       x1="2199.425"
       y1="1631.2928"
       x2="2361.3606"
       y2="1685.827" /><linearGradient
       inkscape:collect="always"
       xlink:href="#linearGradient411"
       id="linearGradient53"
       gradientUnits="userSpaceOnUse"
       x1="2199.425"
       y1="1631.2928"
       x2="2361.3606"
       y2="1685.827" /></defs><g
     inkscape:label="Layer 1"
     inkscape:groupmode="layer"
     id="layer1"
     transform="translate(-2664.9412,-1916.1281)"><g
       id="g39"
       transform="matrix(1.159152,0,0,1.159152,997.0995,1177.7242)"
       inkscape:export-filename="logo_h_claro_final.png"
       inkscape:export-xdpi="200"
       inkscape:export-ydpi="200"><g
         id="g34"
         transform="translate(202.05576)"><g
           id="g30"
           style="fill:url(#linearGradient44)"
           transform="matrix(1.0121897,0,0,1.0121897,494.90743,-8.5643303)"><path
             id="path29"
             class="cls-1"
             d="m 732.94904,686.06192 h 11.36081 v -26.09384 h 8.02132 c 15.97716,0.29466 13.16151,22.85257 -0.26192,26.12658 1.11316,0 4.22347,-0.1637 7.89036,-0.88398 4.55087,-0.85124 9.78928,-2.58647 12.53945,-5.89321 l 0.19644,-0.26193 c 0.9822,-2.55372 1.50604,-5.20567 1.60426,-8.54516 0.29466,-13.81631 -11.81917,-19.74227 -16.07538,-19.90597 h -25.2719 c -0.0109,11.87373 0.007,23.58377 -0.003,35.45751 z"
             sodipodi:nodetypes="cccccccsccccc"
             style="fill:url(#linearGradient42);stroke-width:0.327401" /><path
             id="path30"
             class="cls-5"
             d="m 772.6955,679.05554 c -2.81565,3.40497 -8.15228,5.23842 -12.70315,6.08966 -4.58362,0.85124 -8.44695,0.88398 -8.44695,0.88398 h -18.59636 v 9.92025 h 14.99495 c 2.25907,0 19.28391,-2.58647 24.75151,-16.92663 v 0 z"
             sodipodi:nodetypes="cscccccc"
             style="fill:url(#linearGradient43);stroke-width:0.327401" /></g><g
           id="g33"
           style="fill:url(#linearGradient53);fill-opacity:1"
           transform="matrix(0.63072096,0,0,0.63072096,-95.932025,-367.61265)"><path
             id="path31"
             class="cls-4"
             d="m 2235.7958,1613.3655 -13.0952,14.7943 h 36.0893 l 0.026,57.976 h 16.6933 v -57.976 l 28.2461,-0.318 14.0645,-14.4763 z"
             style="fill:url(#linearGradient45);fill-opacity:1;stroke-width:0.529945"
             sodipodi:nodetypes="ccccccccc" /><path
             id="path32"
             class="cls-2"
             d="m 2246.5485,1686.1358 -9.9184,-19.5717 -3.0232,-5.9404 -21.8523,-43.0681 -2.1216,-4.1901 -13.4721,24.5573 -1.6973,3.0763 -1.6972,3.0763 -4.2432,7.6907 -2.5989,4.7205 -16.2832,29.6492 h 15.3815 l 18.8821,-38.1355 11.3505,22.754 11.2444,5.1448 h -8.6985 l 5.1448,10.2367 z"
             sodipodi:nodetypes="cccccccccccccccccc"
             style="fill:url(#linearGradient46);fill-opacity:1;stroke-width:0.530396" /><path
             id="path33"
             class="cls-20"
             d="m 2363.0386,1686.1358 -9.9184,-19.5717 -3.0232,-5.9404 -21.8524,-43.0681 -2.1215,-4.1901 -13.4721,24.5573 -1.6973,3.0763 -1.6972,3.0763 -4.2432,7.6907 -2.5989,4.7205 -16.2832,29.6492 h 15.3815 l 18.8821,-38.1355 11.3504,22.754 11.2444,5.1448 h -8.6985 l 5.1449,10.2367 z"
             sodipodi:nodetypes="cccccccccccccccccc"
             style="fill:url(#linearGradient47);fill-opacity:1;stroke-width:0.530396" /></g></g><g
         id="g38"
         style="fill:#5cbdff;fill-opacity:1"
         transform="matrix(0.63072096,0,0,0.63072096,560.67939,-433.29874)"><path
           id="path34"
           class="cls-21"
           d="m 1661.9467,1698.6268 h -4.3085 l -8.4043,8.4044 v 4.3085 l 9.5745,9.5745 0.6915,0.7447 0.7447,0.6915 4.2022,3.9362 -4.7873,4.7873 -6.5958,-5.532 -1.9681,-1.7021 -1.8617,4.3617 8.4043,8.4043 h 4.3085 l 8.4044,-8.4043 v -4.3085 l -5.8511,-5.8511 -0.8511,-0.8511 -0.7447,-0.7447 -7.1809,-7.1809 4.0958,-4.0958 6.2234,6.2235 4.8937,-2.0213"
           sodipodi:nodetypes="cccccccccccccccccccccccccc"
           style="fill:#5cbdff;fill-opacity:1;stroke-width:0.531917" /><path
           id="path35"
           class="cls-22"
           d="m 1744.6841,1736.6058 v -35.9094 l -4.9639,-2.0595 -11.6706,11.6705 -11.6705,-11.6705 -4.964,2.0595 v 35.9094 h 5.8617 v -28.886 l 10.8256,9.0302 v -2.3235 2.3235 l 10.8257,-9.0302 v 28.8332 h 5.8617 -0.1056 z"
           sodipodi:nodetypes="ccccccccccccccccccccccc"
           style="fill:#5cbdff;fill-opacity:1;stroke-width:0.52808" /><path
           id="path36"
           class="cls-23"
           d="m 1705.5354,1736.6058 -4.2775,-10.1919 -1.3202,-3.1157 -9.4526,-22.4434 -0.8977,-2.2179 -5.8089,12.7795 -0.7393,1.5842 -0.7394,1.5843 -1.8482,4.0134 -1.109,2.482 -7.0235,15.4727 h 6.6538 l 8.1853,-19.9086 4.9111,11.8818 4.8584,2.6932 h -3.7494 l 2.2179,5.3336 h 10.1919 -0.053 z"
           sodipodi:nodetypes="cccccccccccccccccc"
           style="fill:#5cbdff;fill-opacity:1;stroke-width:0.52808" /><path
           id="path37"
           style="fill:#5cbdff;fill-opacity:1;stroke-width:0.531918"
           class="cls-25"
           d="m 1627.6913,1717.51 18.9362,17.9256 -5.8511,2.6064 -21.649,-20.532 21.649,-20.5321 5.8511,2.5532 z" /><path
           id="path38"
           style="fill:#5cbdff;fill-opacity:1;stroke-width:0.531918"
           class="cls-36"
           d="m 1768.8623,1717.51 -18.9362,17.9256 5.8511,2.6064 21.649,-20.532 -21.649,-20.5321 -5.8511,2.5532 z" /></g></g></g></svg>
