<?xml version="1.0" encoding="UTF-8" standalone="no"?>
<!-- Created with Inkscape (http://www.inkscape.org/) -->

<svg
   width="186.53539mm"
   height="93.017708mm"
   viewBox="0 0 186.53539 93.017708"
   version="1.1"
   id="svg1"
   sodipodi:docname="logos_nuevos_posta.svg"
   inkscape:version="1.3.2 (091e20e, 2023-11-25, custom)"
   xml:space="preserve"
   xmlns:inkscape="http://www.inkscape.org/namespaces/inkscape"
   xmlns:sodipodi="http://sodipodi.sourceforge.net/DTD/sodipodi-0.dtd"
   xmlns:xlink="http://www.w3.org/1999/xlink"
   xmlns="http://www.w3.org/2000/svg"
   xmlns:svg="http://www.w3.org/2000/svg"><sodipodi:namedview
     id="namedview1"
     pagecolor="#505050"
     bordercolor="#eeeeee"
     borderopacity="1"
     inkscape:showpageshadow="0"
     inkscape:pageopacity="0"
     inkscape:pagecheckerboard="0"
     inkscape:deskcolor="#d1d1d1"
     inkscape:document-units="mm"
     inkscape:zoom="0.1767767"
     inkscape:cx="9014.1973"
     inkscape:cy="7119.1511"
     inkscape:window-width="1920"
     inkscape:window-height="1017"
     inkscape:window-x="-8"
     inkscape:window-y="-8"
     inkscape:window-maximized="1"
     inkscape:current-layer="layer1" /><defs
     id="defs1"><linearGradient
       id="linearGradient411"
       inkscape:collect="always"><stop
         style="stop-color:#fb1a76;stop-opacity:1;"
         offset="0"
         id="stop411" /><stop
         style="stop-color:#f10b9e;stop-opacity:1;"
         offset="0.28879312"
         id="stop413" /><stop
         style="stop-color:#e413a9;stop-opacity:1;"
         offset="0.64655173"
         id="stop414" /><stop
         style="stop-color:#be53ff;stop-opacity:1;"
         offset="1"
         id="stop412" /></linearGradient><linearGradient
       id="linearGradient398"
       x1="-2352.1001"
       y1="-2094.3999"
       x2="-2309.5"
       y2="-2125.5"
       gradientTransform="matrix(2.8,0,0,-2.8,6766.2,-5767.2)"
       gradientUnits="userSpaceOnUse"><stop
         offset="0"
         stop-color="#fa7d35"
         id="stop397" /><stop
         offset=".6"
         stop-color="#e10861"
         id="stop398" /></linearGradient><linearGradient
       inkscape:collect="always"
       xlink:href="#linearGradient398"
       id="linearGradient85"
       gradientUnits="userSpaceOnUse"
       x1="732.95245"
       y1="650.60443"
       x2="772.49908"
       y2="679.31744"
       gradientTransform="matrix(1.1973073,0,0,1.1973073,1266.5642,1341.4216)" /><linearGradient
       inkscape:collect="always"
       xlink:href="#linearGradient411"
       id="linearGradient95"
       gradientUnits="userSpaceOnUse"
       x1="2199.425"
       y1="1631.2928"
       x2="2361.3606"
       y2="1685.827" /><linearGradient
       inkscape:collect="always"
       xlink:href="#linearGradient411"
       id="linearGradient96"
       gradientUnits="userSpaceOnUse"
       x1="2199.425"
       y1="1631.2928"
       x2="2361.3606"
       y2="1685.827" /><linearGradient
       inkscape:collect="always"
       xlink:href="#linearGradient411"
       id="linearGradient97"
       gradientUnits="userSpaceOnUse"
       x1="2199.425"
       y1="1631.2928"
       x2="2361.3606"
       y2="1685.827" /><linearGradient
       inkscape:collect="always"
       xlink:href="#linearGradient411"
       id="linearGradient98"
       gradientUnits="userSpaceOnUse"
       x1="2199.425"
       y1="1631.2928"
       x2="2361.3606"
       y2="1685.827" /></defs><g
     inkscape:label="Layer 1"
     inkscape:groupmode="layer"
     id="layer1"
     transform="translate(-2144.1294,-2120.395)"><g
       id="g101"><g
         id="g100"><path
           id="path39"
           style="fill:url(#linearGradient85);stroke-width:0.392"
           class="cls-1"
           d="m 2144.1337,2120.3951 c -0.013,14.2034 0.01,28.211 0,42.414 v 0 11.8778 h 17.9534 c 2.7003,0 23.0206,-3.0877 29.6018,-20.1822 l 0.034,-0.045 c 1.176,-3.0576 1.8032,-6.2325 1.9208,-10.2309 0.3528,-16.5424 -14.1514,-23.6377 -19.2474,-23.8337 z m 13.5982,11.2112 h 9.604 c 18.9596,0.3497 15.8142,26.8791 0.1096,31.1671 -0.6325,0.026 -1.0506,0.036 -1.0506,0.036 h -8.663 z" /><g
           id="g45"
           style="fill:url(#linearGradient98);fill-opacity:1"
           transform="matrix(0.74607238,0,0,0.74607238,567.66714,916.70753)"><path
             id="path41"
             class="cls-4"
             d="m 2235.7958,1613.3655 -13.0952,14.7943 h 36.0893 l 0.026,57.976 h 16.6933 v -57.976 l 28.2461,-0.318 14.0645,-14.4763 z"
             style="fill:url(#linearGradient95);fill-opacity:1;stroke-width:0.529945"
             sodipodi:nodetypes="ccccccccc" /><path
             id="path42"
             class="cls-2"
             d="m 2246.5485,1686.1358 -9.9184,-19.5717 -3.0232,-5.9404 -21.8523,-43.0681 -2.1216,-4.1901 -13.4721,24.5573 -1.6973,3.0763 -1.6972,3.0763 -4.2432,7.6907 -2.5989,4.7205 -16.2832,29.6492 h 15.3815 l 18.8821,-38.1355 11.3505,22.754 11.2444,5.1448 h -8.6985 l 5.1448,10.2367 z"
             sodipodi:nodetypes="cccccccccccccccccc"
             style="fill:url(#linearGradient96);fill-opacity:1;stroke-width:0.530396" /><path
             id="path43"
             class="cls-20"
             d="m 2363.0386,1686.1358 -9.9184,-19.5717 -3.0232,-5.9404 -21.8524,-43.0681 -2.1215,-4.1901 -13.4721,24.5573 -1.6973,3.0763 -1.6972,3.0763 -4.2432,7.6907 -2.5989,4.7205 -16.2832,29.6492 h 15.3815 l 18.8821,-38.1355 11.3504,22.754 11.2444,5.1448 h -8.6985 l 5.1449,10.2367 z"
             sodipodi:nodetypes="cccccccccccccccccc"
             style="fill:url(#linearGradient97);fill-opacity:1;stroke-width:0.530396" /></g></g><g
         id="g56"
         style="fill:#5cbdff;fill-opacity:1"
         transform="matrix(0.74607238,0,0,0.74607238,970.35962,916.70753)"><path
           id="path49"
           class="cls-21"
           d="m 1661.9467,1698.6268 h -4.3085 l -8.4043,8.4044 v 4.3085 l 9.5745,9.5745 0.6915,0.7447 0.7447,0.6915 4.2022,3.9362 -4.7873,4.7873 -6.5958,-5.532 -1.9681,-1.7021 -1.8617,4.3617 8.4043,8.4043 h 4.3085 l 8.4044,-8.4043 v -4.3085 l -5.8511,-5.8511 -0.8511,-0.8511 -0.7447,-0.7447 -7.1809,-7.1809 4.0958,-4.0958 6.2234,6.2235 4.8937,-2.0213"
           sodipodi:nodetypes="cccccccccccccccccccccccccc"
           style="fill:#5cbdff;fill-opacity:1;stroke-width:0.531917" /><path
           id="path50"
           class="cls-22"
           d="m 1744.6841,1736.6058 v -35.9094 l -4.9639,-2.0595 -11.6706,11.6705 -11.6705,-11.6705 -4.964,2.0595 v 35.9094 h 5.8617 v -28.886 l 10.8256,9.0302 v -2.3235 2.3235 l 10.8257,-9.0302 v 28.8332 h 5.8617 -0.1056 z"
           sodipodi:nodetypes="ccccccccccccccccccccccc"
           style="fill:#5cbdff;fill-opacity:1;stroke-width:0.52808" /><path
           id="path51"
           class="cls-23"
           d="m 1705.5354,1736.6058 -4.2775,-10.1919 -1.3202,-3.1157 -9.4526,-22.4434 -0.8977,-2.2179 -5.8089,12.7795 -0.7393,1.5842 -0.7394,1.5843 -1.8482,4.0134 -1.109,2.482 -7.0235,15.4727 h 6.6538 l 8.1853,-19.9086 4.9111,11.8818 4.8584,2.6932 h -3.7494 l 2.2179,5.3336 h 10.1919 -0.053 z"
           sodipodi:nodetypes="cccccccccccccccccc"
           style="fill:#5cbdff;fill-opacity:1;stroke-width:0.52808" /><path
           id="path55"
           style="fill:#5cbdff;fill-opacity:1;stroke-width:0.531918"
           class="cls-25"
           d="m 1627.6913,1717.51 18.9362,17.9256 -5.8511,2.6064 -21.649,-20.532 21.649,-20.5321 5.8511,2.5532 z" /><path
           id="path56"
           style="fill:#5cbdff;fill-opacity:1;stroke-width:0.531918"
           class="cls-36"
           d="m 1768.8623,1717.51 -18.9362,17.9256 5.8511,2.6064 21.649,-20.532 -21.649,-20.5321 -5.8511,2.5532 z" /></g></g></g></svg>
