<?xml version="1.0" encoding="UTF-8" standalone="no"?>
<!-- Created with Inkscape (http://www.inkscape.org/) -->

<svg
   width="284.98984mm"
   height="71.653511mm"
   viewBox="0 0 284.98984 71.653511"
   version="1.1"
   id="svg1"
   sodipodi:docname="logos_nuevos_posta.svg"
   inkscape:version="1.3.2 (091e20e, 2023-11-25, custom)"
   xml:space="preserve"
   xmlns:inkscape="http://www.inkscape.org/namespaces/inkscape"
   xmlns:sodipodi="http://sodipodi.sourceforge.net/DTD/sodipodi-0.dtd"
   xmlns:xlink="http://www.w3.org/1999/xlink"
   xmlns="http://www.w3.org/2000/svg"
   xmlns:svg="http://www.w3.org/2000/svg"><sodipodi:namedview
     id="namedview1"
     pagecolor="#505050"
     bordercolor="#eeeeee"
     borderopacity="1"
     inkscape:showpageshadow="0"
     inkscape:pageopacity="0"
     inkscape:pagecheckerboard="0"
     inkscape:deskcolor="#d1d1d1"
     inkscape:document-units="mm"
     inkscape:zoom="0.1767767"
     inkscape:cx="9014.1973"
     inkscape:cy="7119.1511"
     inkscape:window-width="1920"
     inkscape:window-height="1017"
     inkscape:window-x="-8"
     inkscape:window-y="-8"
     inkscape:window-maximized="1"
     inkscape:current-layer="layer1" /><defs
     id="defs1"><linearGradient
       id="linearGradient411"
       inkscape:collect="always"><stop
         style="stop-color:#fb1a76;stop-opacity:1;"
         offset="0"
         id="stop411" /><stop
         style="stop-color:#f10b9e;stop-opacity:1;"
         offset="0.28879312"
         id="stop413" /><stop
         style="stop-color:#e413a9;stop-opacity:1;"
         offset="0.64655173"
         id="stop414" /><stop
         style="stop-color:#be53ff;stop-opacity:1;"
         offset="1"
         id="stop412" /></linearGradient><linearGradient
       id="linearGradient398"
       x1="-2352.1001"
       y1="-2094.3999"
       x2="-2309.5"
       y2="-2125.5"
       gradientTransform="matrix(2.8,0,0,-2.8,6766.2,-5767.2)"
       gradientUnits="userSpaceOnUse"><stop
         offset="0"
         stop-color="#fa7d35"
         id="stop397" /><stop
         offset=".6"
         stop-color="#e10861"
         id="stop398" /></linearGradient><linearGradient
       inkscape:collect="always"
       xlink:href="#linearGradient398"
       id="linearGradient123"
       gradientUnits="userSpaceOnUse"
       gradientTransform="matrix(1.1732817,0,0,1.1732817,1804.9857,1361.4718)"
       x1="732.95245"
       y1="650.60443"
       x2="772.49908"
       y2="679.31744" /><linearGradient
       inkscape:collect="always"
       xlink:href="#linearGradient411"
       id="linearGradient124"
       gradientUnits="userSpaceOnUse"
       x1="2199.425"
       y1="1631.2928"
       x2="2361.3606"
       y2="1685.827" /><linearGradient
       inkscape:collect="always"
       xlink:href="#linearGradient411"
       id="linearGradient125"
       gradientUnits="userSpaceOnUse"
       x1="2199.425"
       y1="1631.2928"
       x2="2361.3606"
       y2="1685.827" /><linearGradient
       inkscape:collect="always"
       xlink:href="#linearGradient411"
       id="linearGradient126"
       gradientUnits="userSpaceOnUse"
       x1="2199.425"
       y1="1631.2928"
       x2="2361.3606"
       y2="1685.827" /><linearGradient
       inkscape:collect="always"
       xlink:href="#linearGradient411"
       id="linearGradient127"
       gradientUnits="userSpaceOnUse"
       x1="2199.425"
       y1="1631.2928"
       x2="2361.3606"
       y2="1685.827" /><filter
       style="color-interpolation-filters:sRGB"
       inkscape:label="Drop Shadow"
       id="filter142"
       x="-0.0025572743"
       y="-0.010555098"
       width="1.0122181"
       height="1.0504299"><feFlood
         result="flood"
         in="SourceGraphic"
         flood-opacity="1.000000"
         flood-color="rgb(0,0,0)"
         id="feFlood140" /><feGaussianBlur
         result="blur"
         in="SourceGraphic"
         stdDeviation="0.300000"
         id="feGaussianBlur140" /><feOffset
         result="offset"
         in="blur"
         dx="2.000000"
         dy="2.000000"
         id="feOffset140" /><feComposite
         result="comp1"
         operator="in"
         in="flood"
         in2="offset"
         id="feComposite141" /><feComposite
         result="comp2"
         operator="over"
         in="SourceGraphic"
         in2="comp1"
         id="feComposite142" /></filter></defs><g
     inkscape:label="Layer 1"
     inkscape:groupmode="layer"
     id="layer1"
     transform="translate(-2664.221,-2239.2971)"><g
       id="g123"
       inkscape:export-filename=".\logo_h_claro_final2.svg"
       inkscape:export-xdpi="200"
       inkscape:export-ydpi="200"
       transform="translate(0,130.21371)"
       style="filter:url(#filter142)"><g
         id="g118"><path
           id="path114"
           style="fill:url(#linearGradient123);stroke-width:0.384134"
           class="cls-1"
           d="m 2664.9453,2124.814 c -0.013,13.9185 0.01,27.6453 0,41.5633 v 0 11.6391 h 17.5933 c 2.6461,0 22.5583,-3.0256 29.0075,-19.7771 l 0.033,-0.044 c 1.1524,-2.9962 1.7673,-6.1077 1.8825,-10.0257 0.3458,-16.2105 -13.8677,-23.1636 -18.8614,-23.3557 z m 13.3253,10.9864 h 9.4113 c 18.5786,0.3426 15.4975,26.3388 0.1091,30.5418 -0.6206,0.026 -1.031,0.035 -1.031,0.035 h -8.4894 z" /><g
           id="g117"
           style="fill:url(#linearGradient127);fill-opacity:1"
           transform="matrix(0.73110146,0,0,0.73110146,1120.113,945.28026)"><path
             id="path115"
             class="cls-4"
             d="m 2235.7958,1613.3655 -13.0952,14.7943 h 36.0893 l 0.026,57.976 h 16.6933 v -57.976 l 28.2461,-0.318 14.0645,-14.4763 z"
             style="fill:url(#linearGradient124);fill-opacity:1;stroke-width:0.529945"
             sodipodi:nodetypes="ccccccccc" /><path
             id="path116"
             class="cls-2"
             d="m 2246.5485,1686.1358 -9.9184,-19.5717 -3.0232,-5.9404 -21.8523,-43.0681 -2.1216,-4.1901 -13.4721,24.5573 -1.6973,3.0763 -1.6972,3.0763 -4.2432,7.6907 -2.5989,4.7205 -16.2832,29.6492 h 15.3815 l 18.8821,-38.1355 11.3505,22.754 11.2444,5.1448 h -8.6985 l 5.1448,10.2367 z"
             sodipodi:nodetypes="cccccccccccccccccc"
             style="fill:url(#linearGradient125);fill-opacity:1;stroke-width:0.530396" /><path
             id="path117"
             class="cls-20"
             d="m 2363.0386,1686.1358 -9.9184,-19.5717 -3.0232,-5.9404 -21.8524,-43.0681 -2.1215,-4.1901 -13.4721,24.5573 -1.6973,3.0763 -1.6972,3.0763 -4.2432,7.6907 -2.5989,4.7205 -16.2832,29.6492 h 15.3815 l 18.8821,-38.1355 11.3504,22.754 11.2444,5.1448 h -8.6985 l 5.1449,10.2367 z"
             sodipodi:nodetypes="cccccccccccccccccc"
             style="fill:url(#linearGradient126);fill-opacity:1;stroke-width:0.530396" /></g></g><g
         id="g122"
         style="fill:#5cbdff;fill-opacity:1"
         transform="matrix(0.73110146,0,0,0.73110146,1647.0121,869.1401)"><path
           id="path118"
           class="cls-21"
           d="m 1661.9467,1698.6268 h -4.3085 l -8.4043,8.4044 v 4.3085 l 9.5745,9.5745 0.6915,0.7447 0.7447,0.6915 4.2022,3.9362 -4.7873,4.7873 -6.5958,-5.532 -1.9681,-1.7021 -1.8617,4.3617 8.4043,8.4043 h 4.3085 l 8.4044,-8.4043 v -4.3085 l -5.8511,-5.8511 -0.8511,-0.8511 -0.7447,-0.7447 -7.1809,-7.1809 4.0958,-4.0958 6.2234,6.2235 4.8937,-2.0213"
           sodipodi:nodetypes="cccccccccccccccccccccccccc"
           style="fill:#5cbdff;fill-opacity:1;stroke-width:0.531917" /><path
           id="path119"
           class="cls-22"
           d="m 1744.6841,1736.6058 v -35.9094 l -4.9639,-2.0595 -11.6706,11.6705 -11.6705,-11.6705 -4.964,2.0595 v 35.9094 h 5.8617 v -28.886 l 10.8256,9.0302 v -2.3235 2.3235 l 10.8257,-9.0302 v 28.8332 h 5.8617 -0.1056 z"
           sodipodi:nodetypes="ccccccccccccccccccccccc"
           style="fill:#5cbdff;fill-opacity:1;stroke-width:0.52808" /><path
           id="path120"
           class="cls-23"
           d="m 1705.5354,1736.6058 -4.2775,-10.1919 -1.3202,-3.1157 -9.4526,-22.4434 -0.8977,-2.2179 -5.8089,12.7795 -0.7393,1.5842 -0.7394,1.5843 -1.8482,4.0134 -1.109,2.482 -7.0235,15.4727 h 6.6538 l 8.1853,-19.9086 4.9111,11.8818 4.8584,2.6932 h -3.7494 l 2.2179,5.3336 h 10.1919 -0.053 z"
           sodipodi:nodetypes="cccccccccccccccccc"
           style="fill:#5cbdff;fill-opacity:1;stroke-width:0.52808" /><path
           id="path121"
           style="fill:#5cbdff;fill-opacity:1;stroke-width:0.531918"
           class="cls-25"
           d="m 1627.6913,1717.51 18.9362,17.9256 -5.8511,2.6064 -21.649,-20.532 21.649,-20.5321 5.8511,2.5532 z" /><path
           id="path122"
           style="fill:#5cbdff;fill-opacity:1;stroke-width:0.531918"
           class="cls-36"
           d="m 1768.8623,1717.51 -18.9362,17.9256 5.8511,2.6064 21.649,-20.532 -21.649,-20.5321 -5.8511,2.5532 z" /></g></g></g></svg>
